<svg width="111" height="26" viewBox="0 0 111 26" fill="none" xmlns="http://www.w3.org/2000/svg">
<path d="M99.3062 21.8236L103.303 16.528L99.4062 11.4124H102.583L104.882 14.5097L107.16 11.4124H110.237L106.4 16.4881L110.477 21.8236H107.28L104.822 18.5064L102.364 21.8236H99.3062Z" fill="white"/>
<path d="M97.8845 11.4124V21.8236H95.1469V11.4124H97.8845Z" fill="white"/>
<path d="M96.3171 0.0762104C96.3468 -0.0254035 96.4908 -0.0254035 96.5205 0.0762104L97.0092 1.74729C97.3135 2.78784 98.1272 3.60152 99.1677 3.90582L100.839 4.39452C100.94 4.42424 100.94 4.56819 100.839 4.5979L99.1677 5.08661C98.1272 5.39091 97.3135 6.20459 97.0092 7.24514L96.5205 8.91622C96.4908 9.01783 96.3468 9.01783 96.3171 8.91622L95.8284 7.24514C95.5241 6.20459 94.7104 5.39091 93.6699 5.08661L91.9988 4.5979C91.8972 4.56819 91.8972 4.42424 91.9988 4.39452L93.6699 3.90582C94.7104 3.60152 95.5241 2.78784 95.8284 1.74729L96.3171 0.0762104Z" fill="#CFF52C"/>
<path d="M82.1212 26.0001V11.4123H84.8189V12.2716C85.2319 11.9386 85.6915 11.6921 86.1978 11.5322C86.704 11.3591 87.2302 11.2725 87.7765 11.2725C88.5092 11.2725 89.1953 11.4123 89.8347 11.6921C90.4875 11.9719 91.0537 12.3516 91.5333 12.8311C92.0129 13.3107 92.3859 13.8769 92.6524 14.5297C92.9321 15.1825 93.072 15.8819 93.072 16.628C93.072 17.374 92.9321 18.0734 92.6524 18.7262C92.3726 19.379 91.9929 19.9452 91.5133 20.4248C91.0337 20.9044 90.4609 21.284 89.7948 21.5638C89.142 21.8302 88.4426 21.9635 87.6965 21.9635C87.1903 21.9635 86.6907 21.8968 86.1978 21.7636C85.7182 21.6171 85.2719 21.4106 84.8589 21.1441V26.0001H82.1212ZM87.3368 13.6105C86.8439 13.6105 86.3843 13.6971 85.958 13.8703C85.5317 14.0301 85.1653 14.2699 84.8589 14.5897V18.6862C85.152 18.9793 85.5117 19.2124 85.938 19.3856C86.3776 19.5588 86.8439 19.6454 87.3368 19.6454C88.1894 19.6454 88.9088 19.359 89.495 18.7861C90.0812 18.2 90.3743 17.4806 90.3743 16.628C90.3743 15.7753 90.0745 15.0626 89.475 14.4898C88.8889 13.9036 88.1761 13.6105 87.3368 13.6105Z" fill="white"/>
<path d="M68.9281 16.6278C68.9281 15.8685 69.068 15.1624 69.3477 14.5096C69.6408 13.8435 70.0338 13.2707 70.5268 12.7911C71.033 12.2982 71.6258 11.9118 72.3053 11.632C72.9847 11.3523 73.7107 11.2124 74.4834 11.2124C75.2561 11.2124 75.9822 11.3523 76.6616 11.632C77.341 11.9118 77.9272 12.2982 78.4201 12.7911C78.9264 13.2707 79.3194 13.8435 79.5991 14.5096C79.8922 15.1624 80.0387 15.8685 80.0387 16.6278C80.0387 17.3872 79.8922 18.0999 79.5991 18.766C79.3194 19.4188 78.9264 19.985 78.4201 20.4646C77.9272 20.9442 77.341 21.3239 76.6616 21.6037C75.9822 21.8834 75.2561 22.0233 74.4834 22.0233C73.7107 22.0233 72.9847 21.8834 72.3053 21.6037C71.6258 21.3239 71.033 20.9442 70.5268 20.4646C70.0338 19.985 69.6408 19.4188 69.3477 18.766C69.068 18.0999 68.9281 17.3872 68.9281 16.6278ZM74.4834 19.6453C75.2828 19.6453 75.9622 19.3522 76.5217 18.766C77.0812 18.1799 77.361 17.4671 77.361 16.6278C77.361 15.7752 77.0812 15.0558 76.5217 14.4697C75.9622 13.8835 75.2828 13.5904 74.4834 13.5904C73.6841 13.5904 73.0047 13.8835 72.4451 14.4697C71.8856 15.0558 71.6058 15.7752 71.6058 16.6278C71.6058 17.4671 71.8856 18.1799 72.4451 18.766C73.0047 19.3522 73.6841 19.6453 74.4834 19.6453Z" fill="white"/>
<path d="M63.8585 19.6253C64.3248 19.6253 64.7578 19.5321 65.1574 19.3456C65.5704 19.159 65.9634 18.866 66.3364 18.4663L67.975 20.1649C67.4422 20.751 66.8027 21.2107 66.0567 21.5437C65.3106 21.8634 64.5379 22.0233 63.7386 22.0233C62.9793 22.0233 62.2599 21.8834 61.5804 21.6037C60.9143 21.3239 60.3348 20.9442 59.8419 20.4646C59.3623 19.985 58.9826 19.4188 58.7029 18.766C58.4231 18.0999 58.2832 17.3872 58.2832 16.6278C58.2832 15.8685 58.4231 15.1624 58.7029 14.5096C58.9826 13.8435 59.3623 13.2707 59.8419 12.7911C60.3348 12.2982 60.9143 11.9118 61.5804 11.632C62.2599 11.3523 62.9793 11.2124 63.7386 11.2124C64.5646 11.2124 65.3572 11.3789 66.1166 11.712C66.876 12.0317 67.5221 12.4847 68.055 13.0708L66.3764 14.8493C66.0034 14.4364 65.6037 14.1233 65.1774 13.9101C64.7511 13.697 64.2915 13.5904 63.7986 13.5904C63.0126 13.5904 62.3464 13.8835 61.8002 14.4697C61.2674 15.0558 61.0009 15.7752 61.0009 16.6278C61.0009 17.4805 61.274 18.1932 61.8202 18.766C62.3798 19.3389 63.0592 19.6253 63.8585 19.6253Z" fill="white"/>
<path d="M47.5703 20.5846L48.9292 18.7661C49.542 19.1658 50.1215 19.4655 50.6677 19.6654C51.2139 19.8519 51.7601 19.9451 52.3063 19.9451C52.9191 19.9451 53.4054 19.8452 53.7651 19.6454C54.1381 19.4455 54.3246 19.1791 54.3246 18.846C54.3246 18.5796 54.218 18.3665 54.0049 18.2066C53.8051 18.0467 53.4787 17.9335 53.0257 17.8669L51.0274 17.5671C50.0016 17.4073 49.2156 17.0742 48.6694 16.568C48.1365 16.0617 47.8701 15.389 47.8701 14.5497C47.8701 13.5505 48.2631 12.7512 49.0491 12.1517C49.8351 11.5522 50.8875 11.2524 52.2064 11.2524C52.9658 11.2524 53.7051 11.3657 54.4245 11.5922C55.1439 11.8053 55.83 12.125 56.4828 12.5513L55.1639 14.3099C54.5911 13.9768 54.0449 13.7304 53.5253 13.5705C53.0057 13.3973 52.4795 13.3107 51.9466 13.3107C51.4537 13.3107 51.054 13.404 50.7476 13.5905C50.4546 13.777 50.308 14.0234 50.308 14.3299C50.308 14.6096 50.4146 14.8294 50.6277 14.9893C50.8542 15.1358 51.2206 15.2424 51.7268 15.309L53.7251 15.6088C54.7376 15.7553 55.517 16.0884 56.0632 16.6079C56.6227 17.1275 56.9025 17.7869 56.9025 18.5863C56.9025 19.0792 56.7826 19.5388 56.5428 19.9651C56.3163 20.3781 56.0032 20.7378 55.6036 21.0442C55.2039 21.3506 54.7243 21.5904 54.1648 21.7636C53.6052 21.9368 52.9991 22.0234 52.3463 22.0234C51.4004 22.0234 50.5145 21.9035 49.6885 21.6637C48.8626 21.4106 48.1565 21.0509 47.5703 20.5846Z" fill="white"/>
<path d="M35.2564 16.6278C35.2564 15.8685 35.3963 15.1624 35.6761 14.5096C35.9692 13.8435 36.3622 13.2707 36.8551 12.7911C37.3613 12.2982 37.9542 11.9118 38.6336 11.632C39.313 11.3523 40.0391 11.2124 40.8118 11.2124C41.5844 11.2124 42.3105 11.3523 42.9899 11.632C43.6694 11.9118 44.2555 12.2982 44.7484 12.7911C45.2547 13.2707 45.6477 13.8435 45.9275 14.5096C46.2205 15.1624 46.3671 15.8685 46.3671 16.6278C46.3671 17.3872 46.2205 18.0999 45.9275 18.766C45.6477 19.4188 45.2547 19.985 44.7484 20.4646C44.2555 20.9442 43.6694 21.3239 42.9899 21.6037C42.3105 21.8834 41.5844 22.0233 40.8118 22.0233C40.0391 22.0233 39.313 21.8834 38.6336 21.6037C37.9542 21.3239 37.3613 20.9442 36.8551 20.4646C36.3622 19.985 35.9692 19.4188 35.6761 18.766C35.3963 18.0999 35.2564 17.3872 35.2564 16.6278ZM40.8118 19.6453C41.6111 19.6453 42.2905 19.3522 42.85 18.766C43.4096 18.1799 43.6893 17.4671 43.6893 16.6278C43.6893 15.7752 43.4096 15.0558 42.85 14.4697C42.2905 13.8835 41.6111 13.5904 40.8118 13.5904C40.0124 13.5904 39.333 13.8835 38.7735 14.4697C38.2139 15.0558 37.9342 15.7752 37.9342 16.6278C37.9342 17.4671 38.2139 18.1799 38.7735 18.766C39.333 19.3522 40.0124 19.6453 40.8118 19.6453Z" fill="white"/>
<path d="M27.7061 21.8236V11.4124H30.4438V12.5514C30.7769 12.0985 31.1765 11.7588 31.6428 11.5323C32.1224 11.2925 32.6486 11.1726 33.2215 11.1726C33.4879 11.1859 33.7077 11.2126 33.8809 11.2525C34.0674 11.2792 34.2273 11.3325 34.3605 11.4124V13.8104C34.1607 13.7171 33.9409 13.6505 33.7011 13.6106C33.4613 13.5573 33.2148 13.5306 32.9617 13.5306C32.4288 13.5306 31.9359 13.6638 31.4829 13.9303C31.0433 14.1967 30.6969 14.5831 30.4438 15.0893V21.8236H27.7061Z" fill="white"/>
<path d="M14.5128 16.6278C14.5128 15.8685 14.6527 15.1624 14.9325 14.5096C15.2256 13.8435 15.6186 13.2707 16.1115 12.7911C16.6177 12.2982 17.2106 11.9118 17.89 11.632C18.5694 11.3523 19.2955 11.2124 20.0682 11.2124C20.8409 11.2124 21.5669 11.3523 22.2463 11.632C22.9258 11.9118 23.5119 12.2982 24.0049 12.7911C24.5111 13.2707 24.9041 13.8435 25.1839 14.5096C25.477 15.1624 25.6235 15.8685 25.6235 16.6278C25.6235 17.3872 25.477 18.0999 25.1839 18.766C24.9041 19.4188 24.5111 19.985 24.0049 20.4646C23.5119 20.9442 22.9258 21.3239 22.2463 21.6037C21.5669 21.8834 20.8409 22.0233 20.0682 22.0233C19.2955 22.0233 18.5694 21.8834 17.89 21.6037C17.2106 21.3239 16.6177 20.9442 16.1115 20.4646C15.6186 19.985 15.2256 19.4188 14.9325 18.766C14.6527 18.0999 14.5128 17.3872 14.5128 16.6278ZM20.0682 19.6453C20.8675 19.6453 21.5469 19.3522 22.1065 18.766C22.666 18.1799 22.9457 17.4671 22.9457 16.6278C22.9457 15.7752 22.666 15.0558 22.1065 14.4697C21.5469 13.8835 20.8675 13.5904 20.0682 13.5904C19.2688 13.5904 18.5894 13.8835 18.0299 14.4697C17.4704 15.0558 17.1906 15.7752 17.1906 16.6278C17.1906 17.4671 17.4704 18.1799 18.0299 18.766C18.5894 19.3522 19.2688 19.6453 20.0682 19.6453Z" fill="white"/>
<path d="M0 21.8237V7.83545H2.89756V13.4507H9.33214V7.83545H12.2297V21.8237H9.33214V16.1085H2.89756V21.8237H0Z" fill="white"/>
</svg>
