<svg width="393" height="320" viewBox="0 0 393 320" fill="none" xmlns="http://www.w3.org/2000/svg">
<g clip-path="url(#clip0_13_4272)">
<path fill-rule="evenodd" clip-rule="evenodd" d="M294.011 261.633C294.092 261.087 294.601 260.71 295.147 260.791C302.01 261.811 306.989 262.95 313.856 265.566C316.507 266.576 318.856 267.633 320.779 268.831C322.7 270.028 324.248 271.396 325.234 273.051C327.27 276.468 326.675 280.656 323.35 286.026C323.06 286.496 322.443 286.641 321.974 286.35C321.504 286.06 321.359 285.443 321.65 284.974C324.825 279.844 324.98 276.532 323.516 274.074C322.752 272.792 321.488 271.629 319.721 270.529C317.956 269.429 315.743 268.425 313.144 267.435C306.438 264.88 301.604 263.772 294.853 262.77C294.307 262.688 293.93 262.18 294.011 261.633Z" fill="#161129"/>
<path fill-rule="evenodd" clip-rule="evenodd" d="M272.946 249.177C273.124 249.7 272.845 250.268 272.322 250.447C272.167 250.499 272.014 250.552 271.862 250.604C271.34 250.785 270.771 250.507 270.591 249.985C270.411 249.463 270.688 248.894 271.21 248.714C271.364 248.661 271.519 248.607 271.677 248.554C272.2 248.375 272.768 248.655 272.946 249.177ZM268.051 250.924C268.26 251.435 268.016 252.019 267.504 252.228C267.206 252.35 266.921 252.47 266.649 252.587C266.142 252.806 265.554 252.572 265.335 252.065C265.116 251.558 265.35 250.969 265.857 250.75C266.141 250.628 266.438 250.503 266.747 250.377C267.258 250.168 267.842 250.413 268.051 250.924ZM262.916 253.286C263.267 253.712 263.206 254.342 262.78 254.693C262.538 254.891 262.39 255.053 262.304 255.174C261.984 255.624 261.359 255.729 260.909 255.409C260.46 255.088 260.354 254.464 260.675 254.014C260.893 253.708 261.178 253.421 261.509 253.149C261.935 252.798 262.565 252.859 262.916 253.286ZM263.322 257.101C263.475 256.57 264.029 256.264 264.56 256.416C264.832 256.494 265.122 256.57 265.43 256.646C265.967 256.776 266.296 257.317 266.165 257.854C266.035 258.391 265.494 258.72 264.957 258.589C264.626 258.508 264.309 258.425 264.008 258.338C263.477 258.186 263.17 257.632 263.322 257.101ZM268.832 258.335C268.915 257.789 269.426 257.414 269.972 257.498C270.275 257.544 270.583 257.59 270.897 257.635C271.444 257.714 271.823 258.221 271.744 258.768C271.665 259.314 271.157 259.693 270.611 259.614C270.292 259.568 269.979 259.522 269.67 259.475C269.124 259.391 268.749 258.881 268.832 258.335ZM274.431 259.119C274.5 258.571 275 258.182 275.548 258.251C275.857 258.289 276.168 258.328 276.481 258.367C277.029 258.434 277.418 258.933 277.35 259.482C277.283 260.03 276.783 260.419 276.235 260.351C275.922 260.313 275.61 260.274 275.3 260.235C274.752 260.167 274.363 259.667 274.431 259.119ZM280.041 259.813C280.111 259.266 280.611 258.878 281.159 258.948C281.315 258.968 281.472 258.988 281.628 259.008L282.169 259.078C282.717 259.149 283.104 259.65 283.034 260.197C282.963 260.745 282.462 261.132 281.914 261.062L281.372 260.992C281.216 260.972 281.061 260.952 280.906 260.932C280.358 260.862 279.971 260.361 280.041 259.813ZM286.469 260.635C286.539 260.087 287.04 259.7 287.588 259.77C287.955 259.817 288.317 259.863 288.673 259.909C289.22 259.98 289.607 260.481 289.537 261.029C289.466 261.577 288.965 261.963 288.417 261.893C288.062 261.847 287.701 261.801 287.334 261.754C286.786 261.684 286.399 261.183 286.469 260.635ZM292.969 261.487C293.048 260.94 293.554 260.561 294.101 260.639C294.283 260.665 294.464 260.691 294.644 260.717C295.19 260.797 295.569 261.305 295.489 261.851C295.41 262.398 294.902 262.776 294.355 262.696C294.178 262.67 293.998 262.644 293.818 262.619C293.271 262.54 292.891 262.034 292.969 261.487Z" fill="#161129"/>
<path fill-rule="evenodd" clip-rule="evenodd" d="M123.795 252.393C124.13 252.832 124.046 253.46 123.607 253.795C123.471 253.898 123.337 254.001 123.205 254.104C122.768 254.441 122.14 254.36 121.802 253.923C121.465 253.486 121.546 252.858 121.983 252.521C122.118 252.416 122.255 252.311 122.394 252.205C122.833 251.87 123.46 251.954 123.795 252.393ZM119.509 255.812C119.879 256.222 119.847 256.855 119.437 257.225C119.19 257.448 118.952 257.668 118.723 257.884C118.322 258.264 117.689 258.246 117.309 257.844C116.93 257.443 116.948 256.81 117.349 256.431C117.589 256.204 117.839 255.973 118.097 255.74C118.507 255.37 119.139 255.402 119.509 255.812ZM115.313 260.037C115.77 260.348 115.888 260.97 115.577 261.427C115.395 261.695 115.236 261.952 115.099 262.198C114.83 262.68 114.221 262.853 113.739 262.585C113.256 262.316 113.083 261.707 113.352 261.224C113.521 260.921 113.712 260.614 113.924 260.302C114.234 259.845 114.856 259.727 115.313 260.037ZM113.492 265.575C113.932 265.241 114.559 265.326 114.893 265.766C115.033 265.95 115.209 266.135 115.426 266.319C115.847 266.676 115.899 267.307 115.542 267.729C115.185 268.15 114.554 268.202 114.133 267.845C113.818 267.578 113.539 267.289 113.3 266.976C112.966 266.536 113.052 265.909 113.492 265.575ZM118.31 268.873C118.454 268.34 119.003 268.025 119.536 268.169C119.83 268.248 120.137 268.325 120.455 268.399C120.993 268.524 121.328 269.061 121.203 269.599C121.079 270.137 120.541 270.472 120.003 270.347C119.663 270.268 119.333 270.186 119.015 270.1C118.481 269.956 118.166 269.407 118.31 268.873ZM124.14 270.078C124.205 269.529 124.703 269.138 125.252 269.204C125.568 269.242 125.89 269.278 126.219 269.313C126.768 269.372 127.166 269.864 127.107 270.414C127.049 270.963 126.556 271.361 126.007 271.302C125.67 271.266 125.339 271.229 125.013 271.19C124.465 271.124 124.074 270.626 124.14 270.078ZM130.077 270.645C130.109 270.094 130.581 269.673 131.133 269.704C131.455 269.723 131.781 269.74 132.111 269.757C132.662 269.784 133.087 270.254 133.059 270.806C133.031 271.357 132.562 271.782 132.01 271.754C131.676 271.737 131.345 271.72 131.019 271.701C130.467 271.669 130.046 271.197 130.077 270.645ZM197 270.712C197.012 271.265 196.573 271.722 196.021 271.733L195.521 271.743C194.969 271.755 194.512 271.317 194.5 270.764C194.489 270.212 194.927 269.755 195.479 269.744L195.979 269.733C196.532 269.722 196.989 270.16 197 270.712ZM191.5 270.825C191.511 271.377 191.072 271.834 190.519 271.844L189.519 271.863C188.967 271.873 188.511 271.434 188.5 270.882C188.49 270.33 188.929 269.874 189.481 269.864L190.481 269.845C191.033 269.834 191.489 270.273 191.5 270.825ZM136.026 270.909C136.039 270.357 136.497 269.92 137.049 269.932C137.379 269.94 137.711 269.947 138.047 269.953C138.6 269.963 139.039 270.419 139.029 270.971C139.018 271.523 138.562 271.963 138.01 271.953C137.672 271.946 137.336 271.939 137.003 271.932C136.451 271.919 136.014 271.461 136.026 270.909ZM185.5 270.933C185.508 271.485 185.067 271.939 184.515 271.947C184.177 271.951 183.843 271.956 183.513 271.96C182.961 271.967 182.508 271.525 182.501 270.973C182.494 270.421 182.936 269.967 183.488 269.96C183.817 269.956 184.15 269.952 184.486 269.947C185.039 269.939 185.493 270.38 185.5 270.933ZM179.5 270.998C179.501 271.55 179.054 271.999 178.502 272C178.333 272 178.166 272 178 272H177.506C176.954 272 176.506 271.552 176.506 271C176.506 270.448 176.954 270 177.506 270H178C178.165 270 178.331 270 178.498 270C179.051 269.999 179.499 270.446 179.5 270.998ZM141.995 270.998C141.996 270.446 142.444 269.999 142.997 270C143.164 270 143.332 270 143.5 270H143.995C144.547 270 144.995 270.448 144.995 271C144.995 271.552 144.547 272 143.995 272H143.5C143.331 272 143.162 272 142.994 272C142.441 271.999 141.994 271.551 141.995 270.998ZM147.791 271C147.791 270.448 148.239 270 148.791 270H149.735C150.287 270 150.735 270.448 150.735 271C150.735 271.552 150.287 272 149.735 272H148.791C148.239 272 147.791 271.552 147.791 271ZM153.53 271C153.53 270.448 153.978 270 154.53 270H155.484C156.036 270 156.484 270.448 156.484 271C156.484 271.552 156.036 272 155.484 272H154.53C153.978 272 153.53 271.552 153.53 271ZM159.279 271C159.279 270.448 159.727 270 160.279 270H161.233C161.785 270 162.233 270.448 162.233 271C162.233 271.552 161.785 272 161.233 272H160.279C159.727 272 159.279 271.552 159.279 271ZM165.019 271C165.019 270.448 165.466 270 166.019 270H166.976C167.528 270 167.976 270.448 167.976 271C167.976 271.552 167.528 272 166.976 272H166.019C165.466 272 165.019 271.552 165.019 271ZM170.76 271C170.76 270.448 171.208 270 171.76 270H172.721C173.273 270 173.721 270.448 173.721 271C173.721 271.552 173.273 272 172.721 272H171.76C171.208 272 170.76 271.552 170.76 271Z" fill="#161129"/>
<path fill-rule="evenodd" clip-rule="evenodd" d="M123.795 252.393C124.13 252.832 124.046 253.46 123.607 253.795C119.789 256.709 117.244 259.121 115.809 261.097C115.485 261.544 114.859 261.643 114.412 261.318C113.966 260.994 113.866 260.368 114.191 259.921C115.799 257.708 118.527 255.156 122.394 252.205C122.833 251.87 123.46 251.954 123.795 252.393ZM197.589 271.7C196.723 271.718 195.867 271.736 195.021 271.754C194.469 271.765 194.012 271.327 194 270.775C193.989 270.222 194.427 269.766 194.979 269.754C195.842 269.736 196.716 269.718 197.599 269.7C215.297 269.33 236.998 268.877 251.08 270.003C257.342 270.504 263.099 271.132 267.92 272C272.714 272.863 276.688 273.981 279.316 275.511C280.636 276.279 281.696 277.197 282.318 278.317C282.96 279.471 283.089 280.755 282.685 282.113C282.292 283.436 281.406 284.799 280.079 286.217C278.746 287.641 276.921 289.17 274.575 290.818C274.123 291.136 273.5 291.027 273.182 290.575C272.864 290.123 272.973 289.499 273.425 289.182C275.704 287.58 277.411 286.14 278.619 284.85C279.833 283.553 280.497 282.455 280.768 281.543C281.029 280.667 280.934 279.943 280.571 279.289C280.187 278.6 279.458 277.908 278.309 277.239C276 275.894 272.318 274.824 267.565 273.969C262.839 273.118 257.158 272.496 250.92 271.997C236.944 270.879 215.332 271.33 197.589 271.7Z" fill="#161129"/>
<path d="M252 263C252 290.614 228.719 313 200 313C171.281 313 148 290.614 148 263C148 235.386 171.281 213 200 213C228.719 213 252 235.386 252 263Z" fill="#6E56CF"/>
<path fill-rule="evenodd" clip-rule="evenodd" d="M200 311C227.689 311 250 289.436 250 263C250 236.564 227.689 215 200 215C172.311 215 150 236.564 150 263C150 289.436 172.311 311 200 311ZM200 313C228.719 313 252 290.614 252 263C252 235.386 228.719 213 200 213C171.281 213 148 235.386 148 263C148 290.614 171.281 313 200 313Z" fill="#161129"/>
<path fill-rule="evenodd" clip-rule="evenodd" d="M187.403 215.181C173.021 230.842 169.753 254.611 180.948 274C192.142 293.389 214.36 302.444 235.114 297.819C231.757 301.475 227.794 304.688 223.268 307.301C199.353 321.108 168.774 312.915 154.967 289C141.16 265.085 149.353 234.506 173.268 220.699C177.794 218.086 182.559 216.261 187.403 215.181Z" fill="#CFF52C"/>
<path fill-rule="evenodd" clip-rule="evenodd" d="M187.403 215.181C186.259 215.436 185.119 215.733 183.986 216.071C180.321 217.167 176.725 218.703 173.268 220.699C149.353 234.506 141.16 265.085 154.967 289C168.774 312.915 199.353 321.108 223.268 307.301C226.725 305.305 229.853 302.959 232.634 300.333C233.494 299.521 234.321 298.682 235.114 297.819C233.981 298.071 232.844 298.283 231.705 298.454C211.968 301.425 191.531 292.331 180.948 274C170.364 255.669 172.707 233.423 185.148 217.816C185.866 216.915 186.618 216.036 187.403 215.181ZM181.838 218.891C179.261 219.833 176.728 221.01 174.268 222.431C151.31 235.686 143.444 265.042 156.699 288C169.954 310.958 199.31 318.824 222.268 305.569C224.728 304.149 227.014 302.544 229.119 300.784C209.512 302.615 189.708 293.174 179.216 275C168.723 256.826 170.448 234.955 181.838 218.891Z" fill="#161129"/>
<path fill-rule="evenodd" clip-rule="evenodd" d="M226.794 183.065C217.16 181.027 207.301 179.991 197.374 180C179.15 180.016 161.161 183.552 144.376 190.351C143.864 190.559 143.281 190.312 143.074 189.8C142.866 189.288 143.113 188.705 143.625 188.497C160.647 181.603 178.89 178.017 197.372 178C207.439 177.991 217.438 179.041 227.208 181.109C227.749 181.223 228.094 181.754 227.98 182.294C227.865 182.834 227.335 183.18 226.794 183.065ZM105.882 212.352C106.24 212.772 106.19 213.404 105.769 213.762C97.9559 220.414 90.8806 227.904 84.6743 236.104C81.6004 240.165 78.7397 244.4 76.108 248.794C75.8243 249.268 75.2101 249.422 74.7363 249.138C74.2625 248.855 74.1085 248.241 74.3923 247.767C77.0611 243.311 79.9623 239.016 83.0796 234.897C89.3737 226.581 96.549 218.985 104.472 212.239C104.893 211.881 105.524 211.931 105.882 212.352Z" fill="#161129"/>
<path fill-rule="evenodd" clip-rule="evenodd" d="M143.924 189.451C144.136 189.961 143.893 190.546 143.383 190.757C143.238 190.817 143.094 190.877 142.95 190.938C142.44 191.151 141.854 190.91 141.641 190.4C141.429 189.891 141.669 189.305 142.179 189.092C142.325 189.031 142.471 188.97 142.618 188.91C143.128 188.698 143.713 188.941 143.924 189.451ZM255.088 191.151C255.315 190.647 255.907 190.423 256.411 190.65C256.585 190.728 256.759 190.807 256.933 190.886C257.435 191.115 257.658 191.708 257.429 192.21C257.2 192.713 256.607 192.935 256.104 192.706C255.933 192.628 255.761 192.551 255.589 192.473C255.086 192.247 254.861 191.655 255.088 191.151ZM139.144 191.493C139.374 191.995 139.153 192.589 138.651 192.818C138.366 192.948 138.082 193.079 137.798 193.211C137.298 193.444 136.703 193.227 136.47 192.727C136.237 192.226 136.454 191.631 136.954 191.398C137.242 191.264 137.53 191.131 137.819 190.999C138.321 190.77 138.914 190.991 139.144 191.493ZM260.758 193.806C261.007 193.313 261.608 193.115 262.101 193.363C262.442 193.535 262.783 193.709 263.123 193.884C263.614 194.136 263.807 194.739 263.555 195.23C263.302 195.721 262.699 195.915 262.208 195.662C261.873 195.49 261.537 195.319 261.201 195.149C260.708 194.901 260.509 194.299 260.758 193.806ZM134.018 193.918C134.267 194.41 134.07 195.012 133.577 195.261C133.298 195.403 133.02 195.545 132.742 195.688C132.251 195.941 131.648 195.748 131.395 195.257C131.142 194.766 131.335 194.163 131.826 193.91C132.108 193.765 132.391 193.62 132.674 193.477C133.167 193.228 133.768 193.425 134.018 193.918ZM128.992 196.544C129.261 197.027 129.088 197.636 128.606 197.905C128.469 197.981 128.332 198.057 128.196 198.134C128.066 198.207 127.936 198.28 127.806 198.354C127.325 198.626 126.715 198.457 126.443 197.976C126.171 197.495 126.34 196.885 126.821 196.613C126.953 196.539 127.084 196.464 127.217 196.39C127.355 196.312 127.493 196.235 127.632 196.158C128.114 195.889 128.723 196.062 128.992 196.544ZM266.804 196.984C267.075 196.503 267.686 196.334 268.166 196.606C268.333 196.7 268.499 196.794 268.665 196.889C268.813 196.974 268.962 197.059 269.11 197.145C269.589 197.42 269.753 198.032 269.478 198.51C269.202 198.989 268.591 199.154 268.112 198.878C267.966 198.794 267.819 198.71 267.673 198.626C267.509 198.532 267.345 198.439 267.181 198.347C266.701 198.075 266.532 197.465 266.804 196.984ZM124.276 199.248C124.563 199.72 124.414 200.335 123.942 200.622C123.687 200.777 123.432 200.933 123.178 201.09C122.708 201.38 122.092 201.235 121.802 200.765C121.512 200.295 121.657 199.679 122.127 199.388C122.385 199.229 122.643 199.071 122.902 198.914C123.374 198.626 123.989 198.776 124.276 199.248ZM272.136 200.105C272.429 199.637 273.046 199.494 273.514 199.787C273.805 199.968 274.094 200.151 274.383 200.334C274.85 200.63 274.988 201.248 274.692 201.714C274.396 202.18 273.778 202.319 273.312 202.023C273.027 201.842 272.741 201.662 272.455 201.483C271.986 201.191 271.844 200.574 272.136 200.105ZM119.685 202.118C119.99 202.578 119.864 203.199 119.403 203.504C119.154 203.669 118.905 203.834 118.657 204.001C118.199 204.308 117.578 204.186 117.27 203.727C116.962 203.269 117.084 202.648 117.543 202.34C117.794 202.171 118.047 202.003 118.299 201.836C118.76 201.531 119.38 201.657 119.685 202.118ZM277.279 203.421C277.592 202.966 278.214 202.85 278.67 203.162C278.952 203.356 279.234 203.551 279.515 203.747C279.968 204.062 280.079 204.685 279.764 205.139C279.448 205.592 278.825 205.703 278.372 205.388C278.095 205.195 277.817 205.003 277.538 204.812C277.083 204.499 276.967 203.877 277.279 203.421ZM115.206 205.16C115.528 205.609 115.426 206.234 114.977 206.556C114.734 206.73 114.492 206.905 114.251 207.081C113.804 207.406 113.179 207.307 112.854 206.86C112.529 206.414 112.627 205.788 113.074 205.463C113.319 205.285 113.564 205.108 113.81 204.931C114.259 204.609 114.884 204.712 115.206 205.16ZM282.275 206.956C282.607 206.514 283.234 206.425 283.675 206.757C283.949 206.962 284.222 207.169 284.495 207.376C284.934 207.711 285.018 208.339 284.684 208.778C284.349 209.217 283.721 209.302 283.282 208.967C283.014 208.762 282.744 208.559 282.474 208.356C282.033 208.024 281.944 207.397 282.275 206.956ZM110.846 208.37C111.185 208.806 111.106 209.435 110.67 209.774C110.434 209.957 110.199 210.141 109.964 210.326C109.53 210.667 108.901 210.593 108.56 210.159C108.218 209.725 108.293 209.096 108.727 208.754C108.965 208.567 109.203 208.38 109.443 208.194C109.879 207.856 110.507 207.934 110.846 208.37ZM287.115 210.701C287.465 210.274 288.095 210.212 288.522 210.562C288.787 210.779 289.051 210.997 289.314 211.217C289.738 211.57 289.796 212.2 289.443 212.625C289.089 213.049 288.459 213.107 288.034 212.754C287.775 212.538 287.515 212.323 287.254 212.108C286.827 211.758 286.765 211.128 287.115 210.701ZM106.611 211.744C106.966 212.167 106.911 212.798 106.488 213.153C106.374 213.249 106.26 213.345 106.146 213.442C105.724 213.798 105.093 213.745 104.736 213.323C104.38 212.902 104.433 212.271 104.854 211.914C104.97 211.816 105.086 211.719 105.202 211.621C105.625 211.266 106.256 211.321 106.611 211.744ZM291.789 214.651C292.158 214.239 292.79 214.204 293.201 214.572C293.456 214.801 293.711 215.03 293.964 215.26C294.373 215.631 294.404 216.264 294.032 216.673C293.661 217.082 293.029 217.112 292.62 216.741C292.37 216.514 292.119 216.288 291.868 216.063C291.456 215.694 291.421 215.062 291.789 214.651ZM296.29 218.797C296.675 218.402 297.309 218.394 297.704 218.78C297.949 219.019 298.193 219.259 298.437 219.5C298.829 219.888 298.832 220.521 298.444 220.914C298.056 221.306 297.422 221.31 297.03 220.921C296.79 220.684 296.549 220.447 296.307 220.211C295.912 219.826 295.904 219.193 296.29 218.797ZM300.608 223.133C301.01 222.755 301.643 222.774 302.022 223.177C302.256 223.426 302.49 223.676 302.723 223.927C303.098 224.332 303.074 224.965 302.669 225.341C302.264 225.716 301.632 225.692 301.256 225.287C301.027 225.04 300.796 224.793 300.565 224.547C300.186 224.145 300.206 223.512 300.608 223.133ZM304.736 227.651C305.154 227.29 305.786 227.337 306.147 227.755C306.37 228.014 306.593 228.274 306.815 228.535C307.173 228.956 307.122 229.587 306.701 229.944C306.28 230.302 305.649 230.251 305.291 229.831C305.073 229.573 304.853 229.317 304.632 229.061C304.272 228.643 304.318 228.012 304.736 227.651ZM308.667 232.342C309.1 231.999 309.729 232.073 310.071 232.506C310.284 232.774 310.495 233.044 310.705 233.314C311.045 233.75 310.967 234.378 310.531 234.717C310.095 235.057 309.467 234.979 309.128 234.543C308.92 234.277 308.712 234.011 308.502 233.746C308.16 233.313 308.233 232.684 308.667 232.342ZM312.392 237.197C312.84 236.873 313.465 236.973 313.788 237.421C313.989 237.698 314.189 237.977 314.387 238.256C314.708 238.705 314.603 239.33 314.153 239.65C313.703 239.971 313.079 239.866 312.758 239.416C312.562 239.141 312.365 238.866 312.168 238.593C311.844 238.145 311.945 237.52 312.392 237.197ZM315.906 242.207C316.367 241.903 316.987 242.03 317.291 242.491C317.479 242.777 317.667 243.063 317.853 243.351C318.154 243.814 318.022 244.433 317.559 244.734C317.096 245.035 316.477 244.903 316.176 244.44C315.992 244.157 315.807 243.874 315.621 243.592C315.317 243.131 315.445 242.511 315.906 242.207ZM319.201 247.364C319.674 247.08 320.289 247.234 320.573 247.707C320.62 247.786 320.667 247.865 320.714 247.944C320.755 248.012 320.796 248.08 320.836 248.148C321.118 248.623 320.962 249.237 320.488 249.519C320.013 249.801 319.399 249.645 319.117 249.171C319.073 249.096 319.028 249.021 318.984 248.947C318.942 248.876 318.899 248.806 318.857 248.736C318.573 248.262 318.727 247.648 319.201 247.364Z" fill="#161129"/>
<path fill-rule="evenodd" clip-rule="evenodd" d="M305.468 160.894C273.704 139.439 236.244 127.982 197.912 128C178.962 128.009 160.227 130.822 142.29 136.26C141.762 136.42 141.204 136.122 141.043 135.593C140.883 135.065 141.182 134.506 141.71 134.346C159.833 128.851 178.764 126.009 197.912 126C236.643 125.982 274.492 137.558 306.588 159.237C309.887 161.466 313.11 163.79 316.254 166.207C316.691 166.544 316.773 167.172 316.437 167.61C316.1 168.047 315.472 168.129 315.034 167.793C311.924 165.401 308.734 163.1 305.468 160.894ZM131.938 138.656C132.13 139.174 131.865 139.749 131.347 139.941C116.974 145.261 103.215 152.311 90.3867 160.993C58.6418 182.477 34.0543 212.972 19.7898 248.551C19.5843 249.063 19.0021 249.312 18.4895 249.107C17.9768 248.901 17.7279 248.319 17.9334 247.806C32.3465 211.857 57.1901 181.045 89.2657 159.336C102.228 150.564 116.13 143.441 130.653 138.065C131.171 137.873 131.746 138.138 131.938 138.656ZM331.176 180.306C331.559 179.908 332.192 179.897 332.59 180.28C352.221 199.191 367.741 222.118 378.001 247.642C378.207 248.154 377.959 248.737 377.446 248.943C376.934 249.149 376.351 248.9 376.145 248.388C365.991 223.127 350.631 200.436 331.202 181.72C330.804 181.337 330.793 180.704 331.176 180.306Z" fill="#161129"/>
<path fill-rule="evenodd" clip-rule="evenodd" d="M198.13 74C155.344 73.9756 113.584 85.9868 77.5286 108.426C77.0597 108.718 76.4431 108.575 76.1512 108.106C75.8594 107.637 76.003 107.02 76.4718 106.728C112.843 84.092 154.97 71.9754 198.131 72C205.153 72.004 212.146 72.3293 219.092 72.9689C219.642 73.0195 220.047 73.5064 219.996 74.0563C219.945 74.6063 219.459 75.0111 218.909 74.9604C212.023 74.3265 205.091 74.004 198.13 74ZM311.133 102.894C311.408 102.415 312.019 102.25 312.498 102.525C313.989 103.381 315.472 104.254 316.945 105.144C324.788 109.883 332.372 115.106 339.651 120.796C380.064 152.387 408.756 196.581 421.167 246.351C421.3 246.887 420.974 247.43 420.438 247.564C419.902 247.697 419.36 247.371 419.226 246.835C406.923 197.497 378.48 153.688 338.419 122.371C331.204 116.731 323.685 111.554 315.911 106.856C314.45 105.973 312.981 105.108 311.502 104.259C311.023 103.984 310.858 103.373 311.133 102.894ZM10.0446 171.177C10.4993 171.49 10.6137 172.113 10.3002 172.568C-5.09014 194.887 -16.4827 219.925 -23.1626 246.583C-23.2968 247.119 -23.8399 247.444 -24.3756 247.31C-24.9114 247.176 -25.2368 246.633 -25.1026 246.097C-18.3642 219.205 -6.8716 193.947 8.65369 171.432C8.96721 170.978 9.58995 170.863 10.0446 171.177Z" fill="#161129"/>
<path fill-rule="evenodd" clip-rule="evenodd" d="M217.104 73.826C217.153 73.2759 217.639 72.8699 218.189 72.9191C218.354 72.9338 218.518 72.9487 218.683 72.9638C219.233 73.0142 219.637 73.5009 219.587 74.0509C219.537 74.6008 219.05 75.0058 218.5 74.9554C218.337 74.9405 218.174 74.9257 218.011 74.9111C217.461 74.8619 217.055 74.3761 217.104 73.826ZM222.503 74.3498C222.565 73.8011 223.06 73.4067 223.609 73.4689C223.937 73.5062 224.265 73.5441 224.593 73.5827C225.141 73.6474 225.534 74.1444 225.469 74.6929C225.404 75.2414 224.907 75.6336 224.359 75.569C224.034 75.5307 223.709 75.4931 223.384 75.4562C222.835 75.3939 222.44 74.8986 222.503 74.3498ZM228.376 75.0673C228.452 74.5203 228.958 74.1389 229.505 74.2154C229.832 74.2611 230.159 74.3075 230.485 74.3546C231.032 74.4334 231.411 74.9404 231.332 75.4871C231.254 76.0337 230.747 76.4129 230.2 76.3341C229.876 76.2874 229.552 76.2414 229.228 76.1961C228.681 76.1196 228.299 75.6143 228.376 75.0673ZM234.229 75.9366C234.319 75.3918 234.834 75.0236 235.379 75.1142C235.705 75.1684 236.03 75.2233 236.356 75.2788C236.9 75.3718 237.266 75.8885 237.173 76.4329C237.08 76.9773 236.564 77.3433 236.019 77.2503C235.697 77.1952 235.374 77.1408 235.051 77.0871C234.506 76.9965 234.138 76.4814 234.229 75.9366ZM240.057 76.9573C240.161 76.415 240.686 76.0603 241.228 76.165C241.552 76.2276 241.876 76.2908 242.2 76.3548C242.742 76.4618 243.095 76.9878 242.988 77.5296C242.881 78.0714 242.355 78.4239 241.813 78.3169C241.492 78.2535 241.17 78.1908 240.849 78.1287C240.307 78.024 239.952 77.4996 240.057 76.9573ZM245.857 78.1286C245.975 77.5892 246.509 77.2481 247.048 77.3668C247.371 77.4378 247.693 77.5094 248.015 77.5818C248.554 77.7028 248.893 78.2377 248.772 78.7766C248.651 79.3155 248.116 79.6542 247.577 79.5332C247.257 79.4615 246.938 79.3904 246.618 79.3201C246.079 79.2014 245.738 78.6679 245.857 78.1286ZM251.624 79.4496C251.757 78.9135 252.299 78.5864 252.835 78.719C253.155 78.7983 253.476 78.8783 253.796 78.9589C254.331 79.0939 254.656 79.6374 254.521 80.1729C254.386 80.7085 253.843 81.0333 253.307 80.8983C252.99 80.8184 252.672 80.7391 252.355 80.6605C251.819 80.5279 251.491 79.9858 251.624 79.4496ZM257.355 80.9196C257.502 80.3871 258.052 80.0742 258.585 80.2206C258.903 80.3082 259.221 80.3964 259.539 80.4853C260.071 80.6341 260.382 81.1858 260.233 81.7177C260.084 82.2496 259.532 82.5602 259.001 82.4114C258.685 82.3233 258.37 82.2358 258.054 82.149C257.522 82.0026 257.209 81.4521 257.355 80.9196ZM263.047 82.5375C263.207 82.009 263.765 81.7104 264.294 81.8706C264.61 81.9663 264.926 82.0628 265.241 82.1599C265.769 82.3224 266.065 82.882 265.903 83.4099C265.74 83.9377 265.181 84.2339 264.653 84.0714C264.34 83.9751 264.027 83.8795 263.714 83.7846C263.185 83.6244 262.887 83.0661 263.047 82.5375ZM268.694 84.3022C268.868 83.778 269.434 83.494 269.958 83.6678C270.272 83.7717 270.585 83.8763 270.898 83.9816C271.421 84.1577 271.703 84.7248 271.527 85.2482C271.351 85.7717 270.784 86.0533 270.26 85.8772C269.95 85.7729 269.64 85.6692 269.329 85.5662C268.805 85.3923 268.521 84.8265 268.694 84.3022ZM274.294 86.2126C274.482 85.6931 275.055 85.4238 275.574 85.6111C275.885 85.7231 276.195 85.8358 276.505 85.9491C277.024 86.1387 277.291 86.7129 277.101 87.2316C276.912 87.7503 276.338 88.0171 275.819 87.8276C275.511 87.7152 275.204 87.6035 274.896 87.4925C274.376 87.3052 274.107 86.7321 274.294 86.2126ZM279.843 88.2673C280.044 87.7528 280.624 87.4984 281.138 87.6991C281.446 87.8191 281.753 87.9398 282.06 88.0611C282.574 88.2641 282.826 88.845 282.623 89.3586C282.42 89.8723 281.839 90.1241 281.325 89.9212C281.021 89.8009 280.716 89.6813 280.411 89.5624C279.897 89.3616 279.642 88.7818 279.843 88.2673ZM285.337 90.465C285.551 89.9558 286.137 89.7166 286.646 89.9305C286.95 90.0585 287.255 90.187 287.558 90.3163C288.067 90.5324 288.303 91.1197 288.087 91.6279C287.871 92.1361 287.284 92.3729 286.775 92.1567C286.474 92.0286 286.173 91.9011 285.871 91.7743C285.362 91.5603 285.123 90.9741 285.337 90.465ZM290.772 92.8042C290.999 92.3007 291.591 92.0767 292.094 92.3038C292.395 92.4396 292.696 92.576 292.996 92.713C293.499 92.9423 293.72 93.5355 293.491 94.0379C293.262 94.5404 292.669 94.7618 292.166 94.5326C291.868 94.3967 291.57 94.2615 291.272 94.1269C290.768 93.8998 290.544 93.3076 290.772 92.8042ZM296.144 95.2833C296.384 94.7859 296.982 94.5773 297.479 94.8173C297.777 94.9608 298.074 95.105 298.37 95.2498C298.867 95.492 299.073 96.0907 298.831 96.587C298.588 97.0834 297.99 97.2894 297.493 97.0472C297.199 96.9037 296.905 96.7608 296.61 96.6185C296.113 96.3785 295.904 95.7807 296.144 95.2833ZM301.451 97.9007C301.703 97.4097 302.306 97.2166 302.797 97.4695C303.091 97.6207 303.384 97.7724 303.677 97.9249C304.167 98.1799 304.357 98.7837 304.102 99.2736C303.847 99.7635 303.244 99.954 302.754 99.699C302.463 99.5479 302.173 99.3974 301.882 99.2476C301.391 98.9947 301.198 98.3917 301.451 97.9007ZM306.687 100.655C306.953 100.17 307.561 99.993 308.045 100.259C308.19 100.338 308.335 100.417 308.479 100.497C308.963 100.764 309.139 101.372 308.872 101.856C308.606 102.339 307.998 102.515 307.514 102.249C307.371 102.17 307.227 102.091 307.084 102.012C306.599 101.747 306.422 101.139 306.687 100.655ZM78.892 106.347C79.1814 106.817 79.0346 107.433 78.5642 107.723C78.4153 107.814 78.2665 107.906 78.1178 107.998C77.6481 108.288 77.0318 108.143 76.7414 107.673C76.451 107.203 76.5963 106.587 77.0661 106.297C77.2161 106.204 77.3661 106.111 77.5163 106.019C77.9868 105.73 78.6027 105.876 78.892 106.347ZM73.9823 109.423C74.2835 109.886 74.1524 110.506 73.6895 110.807C73.3965 110.998 73.1039 111.189 72.8117 111.381C72.3501 111.684 71.7301 111.556 71.4268 111.094C71.1234 110.633 71.2517 110.013 71.7132 109.71C72.008 109.516 72.3032 109.323 72.5988 109.13C73.0617 108.829 73.6811 108.96 73.9823 109.423ZM68.7172 112.92C69.0311 113.375 68.9171 113.998 68.4627 114.311C68.1751 114.51 67.8879 114.709 67.6011 114.91C67.1481 115.225 66.5248 115.114 66.2088 114.661C65.8928 114.208 66.0039 113.585 66.4569 113.269C66.7462 113.067 67.0359 112.866 67.326 112.666C67.7805 112.352 68.4033 112.466 68.7172 112.92ZM63.5508 116.562C63.8771 117.007 63.7805 117.633 63.3349 117.959C63.0529 118.166 62.7713 118.373 62.4901 118.581C62.0461 118.909 61.4199 118.815 61.0915 118.371C60.7631 117.927 60.8569 117.301 61.301 116.973C61.5846 116.763 61.8686 116.554 62.1531 116.346C62.5987 116.019 63.2244 116.116 63.5508 116.562ZM58.4871 120.344C58.8256 120.781 58.7463 121.409 58.3099 121.747C58.1718 121.855 58.0338 121.962 57.8959 122.069C57.769 122.168 57.6423 122.267 57.5156 122.366C57.0808 122.707 56.4523 122.63 56.1118 122.195C55.7713 121.761 55.8479 121.132 56.2827 120.792C56.4105 120.692 56.5384 120.592 56.6663 120.492C56.8054 120.383 56.9447 120.275 57.084 120.167C57.5204 119.829 58.1485 119.908 58.4871 120.344ZM53.8905 123.973C54.2401 124.4 54.1769 125.03 53.7493 125.38C53.5004 125.583 53.2519 125.787 53.0039 125.992C52.5778 126.343 51.9476 126.283 51.5961 125.857C51.2447 125.431 51.3053 124.801 51.7313 124.449C51.9815 124.243 52.2322 124.037 52.4834 123.832C52.9109 123.482 53.5409 123.545 53.8905 123.973ZM49.4208 127.69C49.7812 128.109 49.734 128.74 49.3155 129.1C49.0718 129.31 48.8285 129.521 48.5857 129.731C48.1687 130.094 47.5371 130.049 47.175 129.632C46.8129 129.215 46.8573 128.583 47.2743 128.221C47.5192 128.009 47.7647 127.796 48.0106 127.585C48.4291 127.224 49.0605 127.272 49.4208 127.69ZM45.047 131.52C45.4179 131.929 45.3868 132.562 44.9776 132.933C44.7393 133.148 44.5015 133.365 44.2642 133.582C43.8566 133.954 43.2241 133.926 42.8514 133.518C42.4788 133.111 42.5072 132.478 42.9148 132.106C43.1542 131.887 43.3941 131.668 43.6345 131.451C44.0437 131.08 44.6761 131.111 45.047 131.52ZM40.7721 135.46C41.1533 135.86 41.1384 136.493 40.7387 136.874C40.506 137.096 40.2738 137.318 40.0421 137.541C39.6441 137.924 39.011 137.912 38.6281 137.514C38.2453 137.116 38.2575 136.483 38.6556 136.1C38.8893 135.875 39.1236 135.65 39.3583 135.427C39.758 135.045 40.391 135.06 40.7721 135.46ZM36.599 139.507C36.9902 139.897 36.9914 140.53 36.6016 140.922C36.3745 141.149 36.148 141.378 35.922 141.607C35.5339 141.999 34.9007 142.003 34.5078 141.615C34.115 141.227 34.1111 140.594 34.4993 140.201C34.7273 139.97 34.9558 139.74 35.1848 139.51C35.5746 139.119 36.2078 139.118 36.599 139.507ZM32.5301 143.66C32.9311 144.04 32.9484 144.673 32.5687 145.074C32.3475 145.307 32.1269 145.541 31.9069 145.775C31.5288 146.178 30.896 146.198 30.4933 145.82C30.0907 145.442 30.0708 144.809 30.4488 144.406C30.6708 144.17 30.8934 143.934 31.1164 143.698C31.4961 143.297 32.1291 143.28 32.5301 143.66ZM28.5682 147.914C28.9788 148.284 29.0122 148.916 28.6428 149.327C28.4277 149.566 28.2131 149.805 27.999 150.045C27.6314 150.457 26.9992 150.493 26.5871 150.126C26.175 149.758 26.139 149.126 26.5066 148.714C26.7225 148.472 26.939 148.23 27.156 147.989C27.5254 147.578 28.1577 147.545 28.5682 147.914ZM24.716 152.268C25.1358 152.627 25.1853 153.259 24.8264 153.678C24.6175 153.923 24.409 154.168 24.2011 154.413C23.8441 154.834 23.2131 154.887 22.7917 154.529C22.3704 154.172 22.3183 153.541 22.6753 153.12C22.885 152.873 23.0953 152.626 23.3061 152.379C23.6649 151.959 24.2962 151.91 24.716 152.268ZM20.9757 156.719C21.4045 157.067 21.47 157.697 21.122 158.126C20.9193 158.375 20.7172 158.626 20.5156 158.876C20.1694 159.306 19.5399 159.375 19.1096 159.028C18.6793 158.682 18.6112 158.053 18.9574 157.622C19.1607 157.37 19.3646 157.117 19.5691 156.865C19.9171 156.437 20.5469 156.371 20.9757 156.719ZM17.3499 161.264C17.7874 161.601 17.8689 162.228 17.5319 162.666C17.3357 162.921 17.14 163.176 16.9449 163.432C16.6097 163.87 15.9822 163.955 15.5432 163.619C15.1042 163.284 15.0201 162.657 15.3552 162.218C15.5521 161.96 15.7495 161.703 15.9475 161.446C16.2845 161.008 16.9124 160.927 17.3499 161.264ZM13.8409 165.899C14.2869 166.224 14.3843 166.85 14.0586 167.296C13.8689 167.556 13.6797 167.816 13.4911 168.076C13.1673 168.524 12.5421 168.624 12.0947 168.3C11.6474 167.976 11.5473 167.351 11.8712 166.903C12.0614 166.641 12.2522 166.378 12.4436 166.116C12.7693 165.67 13.3949 165.573 13.8409 165.899ZM10.451 170.622C10.9051 170.936 11.0184 171.559 10.7041 172.013C10.6126 172.145 10.5212 172.278 10.43 172.41C10.1166 172.865 9.49393 172.979 9.03915 172.666C8.58437 172.353 8.46973 171.73 8.78309 171.275C8.87511 171.142 8.96728 171.008 9.05959 170.875C9.37391 170.421 9.99685 170.307 10.451 170.622Z" fill="#161129"/>
<path fill-rule="evenodd" clip-rule="evenodd" d="M196.5 182C197.052 182 197.5 182.448 197.5 183V212.5C197.5 213.052 197.052 213.5 196.5 213.5C195.948 213.5 195.5 213.052 195.5 212.5V183C195.5 182.448 195.948 182 196.5 182Z" fill="#161129"/>
<path fill-rule="evenodd" clip-rule="evenodd" d="M228.466 194.615C228.955 194.872 229.142 195.477 228.885 195.966L218.885 214.966C218.628 215.454 218.023 215.642 217.534 215.385C217.046 215.128 216.858 214.523 217.115 214.034L227.115 195.034C227.373 194.545 227.977 194.358 228.466 194.615Z" fill="#161129"/>
<path fill-rule="evenodd" clip-rule="evenodd" d="M262.228 202.815C262.607 203.217 262.588 203.85 262.185 204.228L236.685 228.228C236.283 228.607 235.65 228.588 235.272 228.185C234.893 227.783 234.912 227.15 235.315 226.772L260.815 202.772C261.217 202.393 261.85 202.412 262.228 202.815Z" fill="#161129"/>
<path fill-rule="evenodd" clip-rule="evenodd" d="M269.383 227.529C269.642 228.017 269.458 228.622 268.971 228.882L246.471 240.882C245.983 241.142 245.378 240.958 245.118 240.471C244.858 239.983 245.042 239.377 245.53 239.118L268.03 227.118C268.517 226.858 269.123 227.042 269.383 227.529Z" fill="#161129"/>
<path fill-rule="evenodd" clip-rule="evenodd" d="M171.634 196.07C172.148 195.867 172.728 196.12 172.931 196.633L179.431 213.133C179.633 213.647 179.381 214.228 178.867 214.43C178.353 214.633 177.772 214.38 177.57 213.867L171.07 197.367C170.867 196.853 171.12 196.272 171.634 196.07Z" fill="#161129"/>
<path fill-rule="evenodd" clip-rule="evenodd" d="M134.293 202.793C134.683 202.402 135.317 202.402 135.707 202.793L159.707 226.793C160.098 227.183 160.098 227.817 159.707 228.207C159.317 228.598 158.683 228.598 158.293 228.207L134.293 204.207C133.902 203.817 133.902 203.183 134.293 202.793Z" fill="#161129"/>
<path fill-rule="evenodd" clip-rule="evenodd" d="M122.073 228.126C122.28 227.614 122.862 227.366 123.374 227.573L151.874 239.073C152.387 239.279 152.634 239.862 152.428 240.374C152.221 240.886 151.638 241.134 151.126 240.927L122.626 229.427C122.114 229.221 121.866 228.638 122.073 228.126Z" fill="#161129"/>
<path fill-rule="evenodd" clip-rule="evenodd" d="M322.5 185C327.747 185 332 180.747 332 175.5C332 170.253 327.747 166 322.5 166C317.253 166 313 170.253 313 175.5C313 180.747 317.253 185 322.5 185ZM322.5 187C328.851 187 334 181.851 334 175.5C334 169.149 328.851 164 322.5 164C316.149 164 311 169.149 311 175.5C311 181.851 316.149 187 322.5 187Z" fill="#161129"/>
<path d="M272 80.5C272 89.0604 265.06 96 256.5 96C247.94 96 241 89.0604 241 80.5C241 71.9396 247.94 65 256.5 65C265.06 65 272 71.9396 272 80.5Z" fill="white"/>
<path fill-rule="evenodd" clip-rule="evenodd" d="M256.5 94C263.956 94 270 87.9558 270 80.5C270 73.0442 263.956 67 256.5 67C249.044 67 243 73.0442 243 80.5C243 87.9558 249.044 94 256.5 94ZM256.5 96C265.06 96 272 89.0604 272 80.5C272 71.9396 265.06 65 256.5 65C247.94 65 241 71.9396 241 80.5C241 89.0604 247.94 96 256.5 96Z" fill="#161129"/>
<path fill-rule="evenodd" clip-rule="evenodd" d="M279.083 73.1082C276.477 72.5425 272.827 72.3051 268.516 72.439L268.485 71.4395C272.836 71.3043 276.577 71.5409 279.295 72.131C280.651 72.4255 281.782 72.8141 282.612 73.3087C283.437 73.8005 284.036 74.4433 284.167 75.2666C284.354 76.4464 283.523 77.5736 282.269 78.5705C280.978 79.5961 279.072 80.6212 276.713 81.596C271.989 83.5487 265.344 85.3423 257.896 86.5247C250.449 87.7071 243.575 88.0594 238.478 87.6659C235.934 87.4695 233.804 87.0852 232.259 86.5097C230.758 85.9503 229.619 85.1359 229.431 83.956C229.305 83.1593 229.648 82.3869 230.242 81.684C230.838 80.9783 231.736 80.2807 232.863 79.6021C235.12 78.2425 238.402 76.8977 242.356 75.6987L242.646 76.6557C238.731 77.843 235.536 79.1593 233.379 80.4587C232.298 81.1097 231.503 81.7411 231.006 82.3293C230.507 82.9203 230.357 83.4068 230.419 83.7992C230.513 84.3921 231.146 85.0277 232.608 85.5726C234.027 86.1014 236.052 86.4756 238.555 86.6689C243.554 87.0547 250.346 86.7109 257.74 85.5371C265.134 84.3632 271.698 82.5867 276.331 80.6718C278.652 79.7128 280.461 78.7298 281.647 77.7876C282.868 76.8166 283.273 76.0163 283.179 75.4234C283.115 75.0178 282.803 74.5869 282.1 74.1676C281.401 73.7512 280.388 73.3916 279.083 73.1082Z" fill="#6E56CF"/>
<path d="M92 175.5C92 184.06 85.0604 191 76.5 191C67.9396 191 61 184.06 61 175.5C61 166.94 67.9396 160 76.5 160C85.0604 160 92 166.94 92 175.5Z" fill="#6E56CF"/>
<path fill-rule="evenodd" clip-rule="evenodd" d="M76.5 189C83.9558 189 90 182.956 90 175.5C90 168.044 83.9558 162 76.5 162C69.0442 162 63 168.044 63 175.5C63 182.956 69.0442 189 76.5 189ZM76.5 191C85.0604 191 92 184.06 92 175.5C92 166.94 85.0604 160 76.5 160C67.9396 160 61 166.94 61 175.5C61 184.06 67.9396 191 76.5 191Z" fill="#161129"/>
<path fill-rule="evenodd" clip-rule="evenodd" d="M248.592 180.408L244 168L239.408 180.408L227 185L239.408 189.592L244 202L248.592 189.592L261 185L248.592 180.408ZM255.237 185L247.035 181.965L244 173.763L240.965 181.965L232.763 185L240.965 188.035L244 196.237L247.035 188.035L255.237 185Z" fill="#6E56CF"/>
<path d="M92 61L94.1607 66.8393L100 69L94.1607 71.1607L92 77L89.8393 71.1607L84 69L89.8393 66.8393L92 61Z" fill="#CFF52C"/>
<path fill-rule="evenodd" clip-rule="evenodd" d="M224.5 13C225.881 13 227 11.8807 227 10.5C227 9.11929 225.881 8 224.5 8C223.119 8 222 9.11929 222 10.5C222 11.8807 223.119 13 224.5 13ZM224.5 15C226.985 15 229 12.9853 229 10.5C229 8.01472 226.985 6 224.5 6C222.015 6 220 8.01472 220 10.5C220 12.9853 222.015 15 224.5 15Z" fill="#161129"/>
<path fill-rule="evenodd" clip-rule="evenodd" d="M-36 249C-36 248.448 -35.5523 248 -35 248L151 248C151.552 248 152 248.448 152 249C152 249.552 151.552 250 151 250L-35 250C-35.5523 250 -36 249.552 -36 249Z" fill="#161129"/>
<path fill-rule="evenodd" clip-rule="evenodd" d="M248 249C248 248.448 248.448 248 249 248L428 248C428.552 248 429 248.448 429 249C429 249.552 428.552 250 428 250L249 250C248.448 250 248 249.552 248 249Z" fill="#161129"/>
</g>
<defs>
<clipPath id="clip0_13_4272">
<rect width="465" height="320" fill="white" transform="translate(-36)"/>
</clipPath>
</defs>
</svg>
